<svg width="258" height="258" viewBox="0 0 258 258" fill="none" xmlns="http://www.w3.org/2000/svg">
<path d="M176.064 230H82.9366C73.9134 230 66.5986 222.721 66.5986 213.743V44.2574C66.5986 35.2787 73.9134 28 82.9366 28H176.063C185.086 28 192.401 35.2787 192.401 44.2574V213.743C192.402 222.721 185.087 230 176.064 230V230Z" fill="#3D6D93"/>
<path d="M176.064 28H163.811C172.834 28 180.148 35.2787 180.148 44.2574V213.743C180.148 222.721 172.834 230 163.811 230H176.064C185.087 230 192.402 222.721 192.402 213.743V44.2574C192.402 35.2787 185.087 28 176.064 28V28Z" fill="#335E80"/>
<path d="M159.502 43.4447C159.502 46.4794 157.03 48.9393 153.98 48.9393H105.02C101.97 48.9393 99.4977 46.4794 99.4977 43.4447C99.4977 41.6488 98.0347 40.1934 96.2303 40.1934H84.9784C81.5948 40.1934 78.8516 42.9227 78.8516 46.29V211.711C78.8516 215.078 81.5944 217.807 84.9784 217.807H174.021C177.404 217.807 180.148 215.078 180.148 211.711V46.2897C180.148 42.9227 177.405 40.193 174.021 40.193H162.769C160.965 40.193 159.502 41.6488 159.502 43.4447V43.4447Z" fill="#F9F7F8"/>
<path d="M129.5 41.5178C131.192 41.5178 132.563 40.1531 132.563 38.4697C132.563 36.7862 131.192 35.4215 129.5 35.4215C127.808 35.4215 126.437 36.7862 126.437 38.4697C126.437 40.1531 127.808 41.5178 129.5 41.5178Z" fill="#335E80"/>
<path d="M194.677 128.293C214.737 128.293 230.999 112.458 230.999 92.9239C230.999 73.3899 214.737 57.5545 194.677 57.5545C174.617 57.5545 158.355 73.3899 158.355 92.9239C158.355 112.458 174.617 128.293 194.677 128.293Z" fill="#FFE179"/>
<path d="M194.678 57.5535C192.59 57.5535 190.544 57.7283 188.551 58.0593C205.671 60.9035 218.746 75.4534 218.746 92.9229C218.746 110.392 205.671 124.942 188.551 127.786C190.543 128.117 192.59 128.292 194.678 128.292C214.706 128.292 231 112.425 231 92.9229C231 73.4204 214.705 57.5535 194.678 57.5535V57.5535Z" fill="#FBD268"/>
<path d="M199.196 89.8743H197.741V76.0796H199.197C201.245 76.0796 202.911 78.0585 202.911 80.4908C202.911 82.1743 204.283 83.539 205.974 83.539C207.666 83.539 209.038 82.1743 209.038 80.4908C209.038 74.6967 204.623 69.9833 199.196 69.9833H197.74V67.3841C197.74 65.7006 196.369 64.3359 194.677 64.3359C192.985 64.3359 191.614 65.7006 191.614 67.3841V69.9833H190.158C184.732 69.9833 180.316 74.6971 180.316 80.4908V85.4639C180.316 88.2134 181.302 90.8125 183.093 92.7832C184.962 94.8395 187.471 95.9718 190.158 95.9714H191.614V109.767H190.158C188.11 109.767 186.443 107.788 186.443 105.355C186.443 103.672 185.072 102.307 183.38 102.307C181.688 102.307 180.317 103.672 180.317 105.355C180.317 111.149 184.732 115.863 190.159 115.863H191.614V118.462C191.614 120.146 192.986 121.51 194.677 121.51C196.369 121.51 197.741 120.146 197.741 118.462V115.863H199.197C204.623 115.863 209.038 111.149 209.038 105.355V100.382C209.038 97.6324 208.052 95.0332 206.262 93.0629C204.393 91.0066 201.884 89.8743 199.196 89.8743V89.8743ZM190.158 89.8747C189.225 89.8747 188.329 89.4553 187.637 88.6939C186.867 87.8465 186.443 86.6995 186.443 85.4639V80.4908C186.443 78.0585 188.11 76.0796 190.158 76.0796H191.614V89.8747H190.158ZM202.911 105.355C202.911 107.788 201.245 109.767 199.197 109.767H197.741V95.971H199.196C200.13 95.971 201.025 96.3904 201.717 97.1519C202.487 97.9993 202.911 99.1466 202.911 100.382V105.355Z" fill="white"/>
<path d="M64.3219 200.447C84.382 200.447 100.644 184.612 100.644 165.078C100.644 145.544 84.382 129.708 64.3219 129.708C44.2619 129.708 28 145.544 28 165.078C28 184.612 44.2619 200.447 64.3219 200.447Z" fill="#FFE179"/>
<path d="M64.3222 129.707C62.2343 129.707 60.188 129.882 58.1953 130.213C75.3159 133.057 88.3908 147.607 88.3908 165.077C88.3908 182.546 75.3159 197.096 58.1953 199.94C60.1876 200.271 62.2343 200.446 64.3222 200.446C84.3502 200.446 100.644 184.579 100.644 165.077C100.644 145.574 84.3502 129.707 64.3222 129.707Z" fill="#FBD268"/>
<path d="M68.8407 162.028H67.3852V148.233H68.8411C70.8898 148.233 72.5562 150.212 72.5562 152.645C72.5562 154.328 73.9276 155.693 75.6194 155.693C77.3112 155.693 78.6827 154.328 78.6827 152.645C78.6827 146.851 74.2678 142.137 68.8407 142.137H67.3848V139.538C67.3848 137.854 66.0134 136.49 64.3216 136.49C62.6298 136.49 61.2584 137.854 61.2584 139.538V142.137H59.8029C54.3758 142.137 49.9609 146.851 49.9609 152.645V157.618C49.9609 163.412 54.3762 168.126 59.8033 168.126H61.2584V181.921H59.8029C57.7546 181.921 56.0878 179.942 56.0878 177.51C56.0878 175.826 54.7164 174.461 53.0246 174.461C51.3328 174.461 49.9613 175.826 49.9613 177.51C49.9613 183.304 54.3762 188.017 59.8033 188.017H61.2588V190.616C61.2588 192.3 62.6302 193.664 64.322 193.664C66.0138 193.664 67.3852 192.3 67.3852 190.616V188.017H68.8411C74.2682 188.017 78.6831 183.303 78.6831 177.51V172.537C78.6831 166.742 74.2678 162.028 68.8407 162.028V162.028ZM59.8033 162.029C57.7546 162.029 56.0878 160.05 56.0878 157.617V152.644C56.0878 150.212 57.7546 148.233 59.8029 148.233H61.2584V162.028L59.8033 162.029ZM72.5562 177.509C72.5562 179.941 70.8898 181.92 68.8411 181.92H67.3852V168.125H68.8407C70.8894 168.125 72.5562 170.104 72.5562 172.536V177.509Z" fill="white"/>
<path d="M117.118 152.381C115.922 151.191 115.922 149.261 117.118 148.07L147.922 117.418C149.102 116.244 150.861 115.896 152.402 116.531C153.944 117.167 154.94 118.65 154.94 120.311V131.562C154.94 133.246 153.569 134.61 151.877 134.61C150.185 134.61 148.814 133.246 148.814 131.562V125.153L121.451 152.382C120.254 153.571 118.315 153.571 117.118 152.381Z" fill="#DEDAEE"/>
<path d="M106.598 141.469C105.056 140.834 104.06 139.35 104.06 137.69V126.438C104.06 124.755 105.431 123.39 107.123 123.39C108.815 123.39 110.186 124.755 110.186 126.438V132.847L137.549 105.619C138.746 104.429 140.685 104.429 141.882 105.619C143.078 106.809 143.078 108.739 141.882 109.93L111.078 140.582C109.892 141.763 108.123 142.098 106.598 141.469Z" fill="#DEDAEE"/>
</svg>
