<svg width="258" height="258" viewBox="0 0 258 258" fill="none" xmlns="http://www.w3.org/2000/svg">
<path d="M226 129C226 184.781 180.781 230 125 230C95.5946 230 69.1243 217.435 50.6681 197.379C45.8201 192.115 41.5287 186.331 37.8762 180.127C29.0582 165.129 24 147.654 24 129C24 73.2191 69.2191 28 125 28C143.658 28 161.133 33.0582 176.127 41.8803C182.331 45.5287 188.111 49.8201 193.375 54.6722C213.431 73.1202 226 99.5946 226 129Z" fill="#F0CD00"/>
<path d="M226 129C226 183.524 182.801 227.955 128.76 229.93C74.7187 227.955 31.5195 183.524 31.5195 129C31.5195 74.4765 74.7187 30.0448 128.76 28.0701C182.801 30.0448 226 74.4765 226 129Z" fill="#FFDE50"/>
<path d="M193.375 54.6723L50.6679 197.379C45.8199 192.115 41.5285 186.331 37.876 180.127L176.126 41.8803C182.331 45.5287 188.11 49.8201 193.375 54.6723Z" fill="#FFEA94"/>
<path d="M219.034 92.0752L88.0715 223.037C78.8002 219.393 70.1966 214.417 62.5 208.345L204.345 66.4996C210.418 74.1962 215.393 82.7997 219.034 92.0752Z" fill="#FFEA94"/>
<path d="M203.483 129C203.483 172.343 168.343 207.483 125 207.483C109.903 207.483 95.8046 203.221 83.8371 195.833C78.6222 192.618 73.8155 188.804 69.5034 184.492C66.3332 181.326 63.431 177.884 60.838 174.211C57.2679 169.153 54.2792 163.653 51.9747 157.812C48.5613 149.175 46.6403 139.784 46.5248 129.965C46.5166 129.643 46.5166 129.322 46.5166 129C46.5166 85.6566 81.6522 50.5168 125 50.5168C125.321 50.5168 125.647 50.5168 125.969 50.5251C135.788 50.6405 145.175 52.5657 153.812 55.9749C159.653 58.2835 165.152 61.2682 170.211 64.8382C173.884 67.4353 177.322 70.3334 180.492 73.5036C184.804 77.8115 188.617 82.6224 191.833 87.8373C199.22 99.8048 203.483 113.904 203.483 129Z" fill="#FAA300"/>
<path d="M180.492 73.5036L69.5034 184.492C66.3332 181.326 63.431 177.884 60.838 174.211C57.2679 169.153 54.2792 163.653 51.9747 157.812C48.5613 149.175 46.6403 139.784 46.5248 129.965C46.5166 129.643 46.5166 129.322 46.5166 129C46.5166 85.6566 81.6522 50.5168 125 50.5168C125.321 50.5168 125.647 50.5168 125.969 50.5251C135.788 50.6405 145.175 52.5657 153.812 55.9749C159.653 58.2835 165.152 61.2682 170.211 64.8382C173.884 67.4353 177.322 70.3334 180.492 73.5036Z" fill="#FFBD00"/>
<path d="M203.481 129C203.481 172.343 168.341 207.483 124.998 207.483C123.51 207.483 122.034 207.442 120.566 207.36C161.849 205.063 194.614 170.855 194.614 129C194.614 87.1448 161.849 52.9367 120.566 50.6405C122.034 50.558 123.51 50.5168 124.998 50.5168C168.341 50.5168 203.481 85.6566 203.481 129Z" fill="#F68E00"/>
<path d="M160.668 148.815C160.668 138.348 155.258 129.126 147.092 123.781C150.447 119.157 152.433 113.478 152.433 107.34C152.433 96.741 146.525 87.4977 137.83 82.7251V72.562C137.83 68.0084 134.139 64.3171 129.585 64.3171C125.032 64.3171 121.34 68.0084 121.34 72.562V79.28H111.39V72.562C111.39 68.0084 107.698 64.3171 103.145 64.3171C98.591 64.3171 94.8997 68.0084 94.8997 72.562V79.28H85.2107C80.6571 79.28 76.9658 82.9712 76.9658 87.5249C76.9658 92.0785 80.6571 95.7698 85.2107 95.7698H88.056V127.156V162.23H85.2107C80.6571 162.23 76.9658 165.921 76.9658 170.475C76.9658 175.029 80.6571 178.72 85.2107 178.72H94.9001V185.438C94.9001 189.992 98.5914 193.683 103.145 193.683C107.699 193.683 111.39 189.992 111.39 185.438V178.72H121.341V185.438C121.341 189.992 125.032 193.683 129.586 193.683C134.139 193.683 137.83 189.992 137.83 185.438V177.869C150.919 174.685 160.668 162.87 160.668 148.815ZM104.546 95.7698H124.373C130.753 95.7698 135.944 100.96 135.944 107.34C135.944 113.72 130.753 118.911 124.373 118.911H104.546V95.7698ZM130.763 162.23H104.546V135.401H124.373H130.763C138.16 135.401 144.178 141.419 144.178 148.816C144.178 156.213 138.16 162.23 130.763 162.23Z" fill="#F68E00"/>
<path d="M170.974 148.815C170.974 138.348 165.564 129.126 157.398 123.781C160.753 119.157 162.74 113.478 162.74 107.34C162.74 96.741 156.831 87.4977 148.136 82.7251V72.562C148.136 68.0084 144.445 64.3171 139.891 64.3171C135.338 64.3171 131.646 68.0084 131.646 72.562V79.28H121.696V72.562C121.696 68.0084 118.004 64.3171 113.451 64.3171C108.897 64.3171 105.206 68.0084 105.206 72.562V79.28H95.5164C90.9627 79.28 87.2715 82.9712 87.2715 87.5249C87.2715 92.0785 90.9627 95.7698 95.5164 95.7698H98.3617V127.156V162.23H95.5164C90.9627 162.23 87.2715 165.921 87.2715 170.475C87.2715 175.029 90.9627 178.72 95.5164 178.72H105.206V185.438C105.206 189.992 108.897 193.683 113.451 193.683C118.004 193.683 121.696 189.992 121.696 185.438V178.72H131.646V185.438C131.646 189.992 135.338 193.683 139.891 193.683C144.445 193.683 148.136 189.992 148.136 185.438V177.869C161.225 174.685 170.974 162.87 170.974 148.815ZM114.852 95.7698H134.679C141.06 95.7698 146.25 100.96 146.25 107.34C146.25 113.72 141.059 118.911 134.679 118.911H114.852V95.7698V95.7698ZM141.069 162.23H114.852V135.401H134.679H141.069C148.466 135.401 154.484 141.419 154.484 148.816C154.484 156.213 148.466 162.23 141.069 162.23Z" fill="#FFEA94"/>
</svg>
