<svg width="67" height="18" viewBox="0 0 67 18" fill="none" xmlns="http://www.w3.org/2000/svg">
<path d="M15.528 4.52C15.352 5.512 14.944 6.336 14.304 6.992C13.664 7.648 12.896 8.104 12 8.36C12.8 8.536 13.432 8.928 13.896 9.536C14.36 10.144 14.592 10.856 14.592 11.672C14.592 11.928 14.568 12.176 14.52 12.416C14.28 13.824 13.592 14.944 12.456 15.776C11.32 16.592 9.872 17 8.112 17H0.264L3.24 0.151999H10.824C12.344 0.151999 13.52 0.463999 14.352 1.088C15.184 1.712 15.6 2.576 15.6 3.68C15.6 3.952 15.576 4.232 15.528 4.52ZM8.808 6.992C9.496 6.992 10.048 6.84 10.464 6.536C10.88 6.232 11.136 5.792 11.232 5.216C11.248 5.12 11.256 4.992 11.256 4.832C11.256 4.368 11.104 4.016 10.8 3.776C10.496 3.52 10.048 3.392 9.456 3.392H6.768L6.144 6.992H8.808ZM10.44 11.864C10.472 11.672 10.488 11.528 10.488 11.432C10.488 10.968 10.32 10.608 9.984 10.352C9.648 10.08 9.184 9.944 8.592 9.944H5.616L4.944 13.736H7.968C8.672 13.736 9.232 13.576 9.648 13.256C10.064 12.936 10.328 12.472 10.44 11.864ZM16.4683 10.28C16.7083 8.904 17.1803 7.696 17.8843 6.656C18.5883 5.616 19.4363 4.816 20.4283 4.256C21.4203 3.696 22.4683 3.416 23.5723 3.416C24.5163 3.416 25.3083 3.608 25.9483 3.992C26.5883 4.376 27.0523 4.88 27.3403 5.504L27.6763 3.608H31.7803L29.4043 17H25.3003L25.6603 15.104C25.1483 15.728 24.5003 16.232 23.7163 16.616C22.9323 17 22.0683 17.192 21.1243 17.192C20.1803 17.192 19.3403 16.976 18.6043 16.544C17.8843 16.112 17.3243 15.504 16.9243 14.72C16.5243 13.92 16.3243 12.984 16.3243 11.912C16.3243 11.4 16.3723 10.856 16.4683 10.28ZM26.5003 10.304C26.5483 10.016 26.5723 9.752 26.5723 9.512C26.5723 8.728 26.3403 8.112 25.8763 7.664C25.4283 7.216 24.8523 6.992 24.1483 6.992C23.3323 6.992 22.5883 7.288 21.9163 7.88C21.2443 8.456 20.8203 9.256 20.6443 10.28C20.5963 10.568 20.5723 10.832 20.5723 11.072C20.5723 11.856 20.7963 12.48 21.2443 12.944C21.7083 13.392 22.2843 13.616 22.9723 13.616C23.7883 13.616 24.5323 13.32 25.2043 12.728C25.8763 12.136 26.3083 11.328 26.5003 10.304ZM42.9094 3.464C44.2534 3.464 45.3094 3.84 46.0774 4.592C46.8454 5.344 47.2294 6.392 47.2294 7.736C47.2294 8.184 47.1814 8.664 47.0854 9.176L45.6934 17H41.6134L42.9094 9.728C42.9574 9.456 42.9814 9.216 42.9814 9.008C42.9814 8.336 42.7894 7.816 42.4054 7.448C42.0374 7.08 41.5174 6.896 40.8454 6.896C40.0454 6.896 39.3734 7.144 38.8294 7.64C38.2854 8.136 37.9334 8.832 37.7734 9.728V9.608L36.4774 17H32.3734L34.7254 3.608H38.8294L38.5174 5.408C39.0454 4.816 39.6854 4.344 40.4374 3.992C41.2054 3.64 42.0294 3.464 42.9094 3.464Z" fill="#2D3332"/>
<path d="M59.5373 8.648L63.6413 17H58.8653L56.3453 11.84L52.4093 17H47.7532L54.6653 8.432L50.6093 0.151999H55.3853L57.8813 5.24L61.7453 0.151999H66.4013L59.5373 8.648Z" fill="#EEB545"/>
</svg>
