<svg width="70" height="48" viewBox="0 0 70 48" fill="none" xmlns="http://www.w3.org/2000/svg">
<path d="M15.528 17.52C15.352 18.512 14.944 19.336 14.304 19.992C13.664 20.648 12.896 21.104 12 21.36C12.8 21.536 13.432 21.928 13.896 22.536C14.36 23.144 14.592 23.856 14.592 24.672C14.592 24.928 14.568 25.176 14.52 25.416C14.28 26.824 13.592 27.944 12.456 28.776C11.32 29.592 9.872 30 8.112 30H0.264L3.24 13.152H10.824C12.344 13.152 13.52 13.464 14.352 14.088C15.184 14.712 15.6 15.576 15.6 16.68C15.6 16.952 15.576 17.232 15.528 17.52ZM8.808 19.992C9.496 19.992 10.048 19.84 10.464 19.536C10.88 19.232 11.136 18.792 11.232 18.216C11.248 18.12 11.256 17.992 11.256 17.832C11.256 17.368 11.104 17.016 10.8 16.776C10.496 16.52 10.048 16.392 9.456 16.392H6.768L6.144 19.992H8.808ZM10.44 24.864C10.472 24.672 10.488 24.528 10.488 24.432C10.488 23.968 10.32 23.608 9.984 23.352C9.648 23.08 9.184 22.944 8.592 22.944H5.616L4.944 26.736H7.968C8.672 26.736 9.232 26.576 9.648 26.256C10.064 25.936 10.328 25.472 10.44 24.864ZM16.4683 23.28C16.7083 21.904 17.1803 20.696 17.8843 19.656C18.5883 18.616 19.4363 17.816 20.4283 17.256C21.4203 16.696 22.4683 16.416 23.5723 16.416C24.5163 16.416 25.3083 16.608 25.9483 16.992C26.5883 17.376 27.0523 17.88 27.3403 18.504L27.6763 16.608H31.7803L29.4043 30H25.3003L25.6603 28.104C25.1483 28.728 24.5003 29.232 23.7163 29.616C22.9323 30 22.0683 30.192 21.1243 30.192C20.1803 30.192 19.3403 29.976 18.6043 29.544C17.8843 29.112 17.3243 28.504 16.9243 27.72C16.5243 26.92 16.3243 25.984 16.3243 24.912C16.3243 24.4 16.3723 23.856 16.4683 23.28ZM26.5003 23.304C26.5483 23.016 26.5723 22.752 26.5723 22.512C26.5723 21.728 26.3403 21.112 25.8763 20.664C25.4283 20.216 24.8523 19.992 24.1483 19.992C23.3323 19.992 22.5883 20.288 21.9163 20.88C21.2443 21.456 20.8203 22.256 20.6443 23.28C20.5963 23.568 20.5723 23.832 20.5723 24.072C20.5723 24.856 20.7963 25.48 21.2443 25.944C21.7083 26.392 22.2843 26.616 22.9723 26.616C23.7883 26.616 24.5323 26.32 25.2043 25.728C25.8763 25.136 26.3083 24.328 26.5003 23.304ZM42.9094 16.464C44.2534 16.464 45.3094 16.84 46.0774 17.592C46.8454 18.344 47.2294 19.392 47.2294 20.736C47.2294 21.184 47.1814 21.664 47.0854 22.176L45.6934 30H41.6134L42.9094 22.728C42.9574 22.456 42.9814 22.216 42.9814 22.008C42.9814 21.336 42.7894 20.816 42.4054 20.448C42.0374 20.08 41.5174 19.896 40.8454 19.896C40.0454 19.896 39.3734 20.144 38.8294 20.64C38.2854 21.136 37.9334 21.832 37.7734 22.728V22.608L36.4774 30H32.3734L34.7254 16.608H38.8294L38.5174 18.408C39.0454 17.816 39.6854 17.344 40.4374 16.992C41.2054 16.64 42.0294 16.464 42.9094 16.464Z" fill="black"/>
<path d="M60.008 23.864L65.48 35H59.112L55.752 28.12L50.504 35H44.296L53.512 23.576L48.104 12.536H54.472L57.8 19.32L62.952 12.536H69.16L60.008 23.864Z" fill="#EEB545"/>
</svg>
