<svg width="258" height="258" viewBox="0 0 258 258" fill="none" xmlns="http://www.w3.org/2000/svg">
<path d="M96.4878 219.049C124.924 219.049 147.976 195.997 147.976 167.561C147.976 139.125 124.924 116.073 96.4878 116.073C68.0519 116.073 45 139.125 45 167.561C45 195.997 68.0519 219.049 96.4878 219.049Z" fill="#FEED32"/>
<path d="M96.4883 205.288C117.325 205.288 134.216 188.397 134.216 167.561C134.216 146.724 117.325 129.833 96.4883 129.833C75.6519 129.833 58.7607 146.724 58.7607 167.561C58.7607 188.397 75.6519 205.288 96.4883 205.288Z" fill="#EFBA1B"/>
<path d="M94.4518 194.881V190.726C90.5278 190.502 87.5755 189.256 85.5929 186.987C83.6097 184.717 82.6182 181.445 82.6182 177.17V175.984H90.348C90.348 176.146 90.3371 176.39 90.3166 176.714C90.2948 177.038 90.2845 177.271 90.2845 177.413C90.2845 179.561 90.6447 181.212 91.3663 182.366C92.0866 183.522 93.2108 184.231 94.7381 184.495V170.695C90.5599 168.507 87.5809 166.293 85.7993 164.054C84.0178 161.816 83.1273 159.186 83.1273 156.167C83.1273 152.662 84.1291 149.866 86.1335 147.778C88.1372 145.692 90.9098 144.566 94.4518 144.404V140.241H98.0464V144.466C101.693 144.506 104.472 145.479 106.38 147.383C108.289 149.287 109.243 152.053 109.243 155.68V156.562H101.704V155.924C101.704 154.202 101.36 152.854 100.671 151.881C99.9812 150.909 99.0211 150.392 97.7916 150.331V162.762C102.627 165.153 105.929 167.434 107.7 169.602C109.471 171.769 110.356 174.474 110.356 177.717C110.356 181.708 109.301 184.819 107.192 187.047C105.081 189.276 102.033 190.502 98.0464 190.726V194.881H94.4518ZM94.7381 161.091L94.706 150.271C93.4759 150.372 92.5322 150.854 91.8748 151.714C91.2173 152.575 90.8892 153.756 90.8892 155.256C90.8892 156.39 91.2016 157.438 91.8275 158.401C92.4529 159.363 93.4227 160.26 94.7381 161.091ZM97.7916 184.495C99.2123 184.251 100.294 183.658 101.036 182.717C101.778 181.774 102.15 180.523 102.15 178.963C102.15 177.423 101.832 176.156 101.196 175.164C100.559 174.171 99.4242 173.177 97.7916 172.185V184.495Z" fill="#E6E7E8"/>
<path d="M174.561 140.976C202.997 140.976 226.049 117.924 226.049 89.4878C226.049 61.0519 202.997 38 174.561 38C146.125 38 123.073 61.0519 123.073 89.4878C123.073 117.924 146.125 140.976 174.561 140.976Z" fill="#DAD7DC"/>
<path d="M174.562 127.215C195.398 127.215 212.289 110.324 212.289 89.4878C212.289 68.6514 195.398 51.7603 174.562 51.7603C153.725 51.7603 136.834 68.6514 136.834 89.4878C136.834 110.324 153.725 127.215 174.562 127.215Z" fill="#B0B1B5"/>
<path d="M186.593 101.766L189.553 108.289C188.511 108.855 187.31 109.317 185.949 109.673C184.588 110.029 183.267 110.207 181.988 110.207C180.344 110.207 178.151 109.819 175.411 109.043C172.67 108.266 170.642 107.878 169.326 107.878C167.097 107.878 164.822 108.673 162.502 110.262L159.569 103.63C161.634 102.15 163.119 100.574 164.023 98.9019C164.927 97.2301 165.38 95.6359 165.38 94.1194C165.38 93.626 165.343 93.1053 165.27 92.5572H159.569V86.5002H163.872C163.123 84.3441 162.749 82.1607 162.749 79.9498C162.749 77.9583 163.292 76.058 164.379 74.2491C165.466 72.4403 167.006 71.0653 168.997 70.1244C170.989 69.1834 173.163 68.7129 175.52 68.7129C179.12 68.7129 181.988 69.6219 184.126 71.4399C186.264 73.2579 187.57 75.8662 188.045 79.2647L180.618 80.361C180.271 78.4059 179.641 76.999 178.727 76.1402C177.813 75.2815 176.671 74.8521 175.301 74.8521C173.839 74.8521 172.624 75.3409 171.656 76.3184C170.688 77.2959 170.203 78.5247 170.203 80.0047C170.203 80.7721 170.336 81.7861 170.601 83.0469C170.866 84.3076 171.19 85.4587 171.574 86.5002H180.125V92.5572H172.834C172.889 92.9591 172.917 93.3611 172.917 93.7631C172.917 95.2065 172.643 96.5403 172.094 97.7645C171.546 98.9887 170.423 100.597 168.723 102.588C169.728 102.077 170.989 101.821 172.506 101.821C173.145 101.821 173.721 101.857 174.232 101.93C174.488 101.967 175.237 102.141 176.48 102.451C178.69 103.018 180.198 103.301 181.002 103.301C182.427 103.301 184.291 102.789 186.593 101.766V101.766Z" fill="#E6E7E8"/>
<path d="M101.057 79.7151V70.811C90.8695 69.6538 79.8524 72.7227 71.25 79.8158C62.6225 86.783 56.6612 97.6493 55.5544 109.597C55.0262 103.661 55.6298 97.4731 57.4911 91.5625C59.3274 85.6512 62.396 79.9917 66.5212 75.087C70.6464 70.1822 75.8279 66.0064 81.7137 62.9629C87.6248 59.8943 94.2401 58.0078 101.057 57.4293V48.4495L116.677 64.095L101.057 79.7151Z" fill="#FDD96F"/>
<path d="M169.992 177.333V186.238C180.179 187.395 191.196 184.326 199.799 177.233C208.426 170.266 214.388 159.399 215.494 147.451C216.023 153.388 215.419 159.575 213.558 165.486C211.721 171.397 208.653 177.057 204.528 181.962C200.402 186.866 195.221 191.042 189.335 194.086C183.424 197.154 176.809 199.041 169.992 199.619V208.599L154.372 192.954L169.992 177.333Z" fill="#FFD25A"/>
</svg>
