<svg width="258" height="258" viewBox="0 0 258 258" fill="none" xmlns="http://www.w3.org/2000/svg">
<path d="M220.095 190.626V193.964C220.095 196.447 217.972 198.46 215.353 198.46H134.389V190.626C134.389 180.57 140.056 171.455 148.831 167.391L165.438 159.196C167.761 158.05 170.626 158.906 171.837 161.106C172.302 161.954 172.453 162.878 172.33 163.762L177.243 163.61L181.875 163.468C181.819 162.687 181.977 161.88 182.382 161.13C183.579 158.923 186.437 158.05 188.771 159.181L205.638 167.384C214.424 171.448 220.095 180.563 220.095 190.626V190.626Z" fill="#979FF3"/>
<path d="M220.095 190.626V193.964C220.095 196.447 217.973 198.46 215.354 198.46H177.244V163.61L181.876 163.468C181.82 162.687 181.978 161.88 182.383 161.13C183.58 158.923 186.438 158.05 188.772 159.181L205.639 167.384C214.425 171.448 220.095 180.563 220.095 190.626Z" fill="#6B77EE"/>
<path d="M189.419 154.792V162.612C189.419 169.357 183.956 174.847 177.244 174.847C170.531 174.847 165.068 169.357 165.068 162.612V154.792C165.068 152.539 166.885 150.714 169.127 150.714H185.361C187.599 150.714 189.419 152.539 189.419 154.792V154.792Z" fill="#FFCBBA"/>
<path d="M189.42 154.792V162.612C189.42 169.357 183.957 174.847 177.244 174.847V150.714H185.361C187.6 150.714 189.42 152.539 189.42 154.792V154.792Z" fill="#FFBCA4"/>
<path d="M207.867 108.85C207.867 129.625 207.893 128.321 207.807 128.883C206.846 145.136 193.527 157.788 177.244 157.788C160.961 157.788 147.638 145.132 146.677 128.876C146.596 128.294 146.621 129.651 146.621 108.85C146.621 91.8827 160.359 78.0777 177.244 78.0777C185.421 78.0777 193.108 81.2787 198.895 87.09C204.681 92.9084 207.867 100.633 207.867 108.85V108.85Z" fill="#FFDDCC"/>
<path d="M207.867 108.85C207.867 129.625 207.893 128.321 207.807 128.883C206.846 145.136 193.527 157.788 177.244 157.788V78.0777C185.421 78.0777 193.108 81.2787 198.895 87.09C204.682 92.9084 207.867 100.633 207.867 108.85V108.85Z" fill="#FFCBBA"/>
<path d="M197.48 80.3308C197.48 82.262 197.195 84.1826 196.66 86.0289H157.828C157.293 84.1826 157.012 82.2584 157.012 80.3308C157.012 69.122 166.086 60 177.244 60C188.402 60 197.48 69.122 197.48 80.3308V80.3308Z" fill="#FF9F22"/>
<path d="M196.66 86.0289H177.244V60C188.402 60 197.48 69.122 197.48 80.3308C197.48 82.262 197.195 84.1826 196.66 86.0289Z" fill="#FF7037"/>
<path d="M134.389 189.741V198.46H44.2797C41.3656 198.46 39 196.221 39 193.459V189.741C39 178.547 45.3076 168.406 55.0754 163.879L73.5549 154.76C76.1418 153.483 79.3312 154.435 80.6756 156.886C81.1966 157.83 81.3621 158.86 81.2281 159.843L86.6945 159.677L91.8511 159.517C91.7878 158.644 91.9636 157.749 92.4142 156.914C93.7484 154.456 96.9303 153.487 99.5243 154.746L118.3 163.871C128.074 168.395 134.389 178.543 134.389 189.741Z" fill="#FFDA44"/>
<path d="M134.389 189.741V198.46H86.6943V159.677L91.851 159.517C91.7876 158.644 91.9634 157.749 92.414 156.914C93.7482 154.456 96.9301 153.487 99.5242 154.746L118.299 163.872C128.074 168.395 134.389 178.543 134.389 189.741Z" fill="#FF9F22"/>
<path d="M98.7298 151.255V159.075C98.7298 165.774 93.3444 171.232 86.6951 171.31H86.5544C79.8418 171.31 74.3789 165.82 74.3789 159.075V151.255C74.3789 149.002 76.1987 147.177 78.4373 147.177H94.6711C96.91 147.177 98.7298 149.002 98.7298 151.255V151.255Z" fill="#D58678"/>
<path d="M98.729 151.255V159.075C98.729 165.774 93.3436 171.232 86.6943 171.31V147.177H94.6703C96.9092 147.177 98.729 149.002 98.729 151.255V151.255Z" fill="#B95D4C"/>
<path d="M117.173 100.587V117.508L117.149 124.582C117.149 124.65 117.149 124.72 117.145 124.788C116.462 141.263 103.097 154.177 86.6946 154.247C86.6489 154.251 86.5994 154.251 86.5538 154.251C70.084 154.251 56.6451 141.309 55.959 124.788C55.9554 124.72 55.9554 124.65 55.9554 124.582L55.9307 117.526V100.587H117.173Z" fill="#E99A8B"/>
<path d="M117.173 100.587V117.508L117.148 124.582C117.148 124.65 117.148 124.72 117.145 124.788C116.462 141.263 103.097 154.177 86.6943 154.247V100.587H117.173Z" fill="#D58678"/>
<path d="M117.173 90.9277V106.745H68.2433C54.815 106.745 43.9277 95.8052 43.9277 82.3115V71.7995C43.9277 68.8673 46.2933 66.494 49.2074 66.494H92.8577C106.286 66.494 117.173 77.4339 117.173 90.9277V90.9277Z" fill="#61729D"/>
<path d="M198.895 87.09C193.108 81.2787 185.421 78.0777 177.244 78.0777C160.359 78.0777 146.621 91.8827 146.621 108.85V124.437C149.272 124.841 165.021 122.672 177.244 110.643C189.729 122.93 205.669 124.772 207.867 124.437V108.85C207.867 100.633 204.682 92.9084 198.895 87.09V87.09Z" fill="#FFDA44"/>
<path d="M117.173 90.9277V106.745H86.6943V66.494H92.8576C106.286 66.494 117.173 77.4339 117.173 90.9277V90.9277Z" fill="#47568F"/>
<path d="M207.867 108.85V124.437C205.927 124.732 189.951 123.149 177.244 110.643V78.0777C185.421 78.0777 193.108 81.2787 198.895 87.09C204.682 92.9084 207.867 100.633 207.867 108.85Z" fill="#FF9F22"/>
</svg>
